<?xml version="1.0" standalone="no"?>
<!DOCTYPE svg PUBLIC "-//W3C//DTD SVG 20010904//EN"
 "http://www.w3.org/TR/2001/REC-SVG-20010904/DTD/svg10.dtd">
<svg version="1.0" xmlns="http://www.w3.org/2000/svg"
 width="100.000000pt" height="100.000000pt" viewBox="0 0 100.000000 100.000000"
 preserveAspectRatio="xMidYMid meet">
<metadata>
Created by potrace 1.11, written by Peter Selinger 2001-2013
</metadata>
<g transform="translate(0.000000,100.000000) scale(0.100000,-0.100000)"
fill="#000000" stroke="none">
<path d="M327 985 c-51 -19 -90 -48 -106 -79 -8 -14 -24 -28 -35 -32 -41 -12
-93 -55 -116 -97 -31 -55 -36 -151 -11 -222 16 -44 16 -53 3 -72 -19 -31 -23
-102 -6 -135 7 -14 26 -36 41 -48 24 -19 28 -29 28 -75 0 -46 4 -58 30 -85 17
-17 49 -36 72 -43 24 -6 46 -20 53 -32 27 -51 138 -74 188 -40 19 14 24 14 51
0 64 -33 144 -10 192 54 15 21 34 32 62 37 25 4 52 18 70 36 26 26 29 34 25
78 -4 41 -2 50 16 60 57 31 82 120 51 179 -16 31 -16 37 1 97 37 137 -1 244
-103 294 -27 13 -57 37 -66 51 -36 64 -178 109 -243 77 -24 -12 -33 -13 -54
-2 -32 17 -94 17 -143 -1z m134 -41 c18 -22 22 -832 4 -867 -8 -17 -21 -23
-59 -25 -54 -4 -92 15 -106 54 -7 17 -17 24 -38 24 -28 0 -67 22 -89 50 -17
20 -16 71 2 94 13 17 11 20 -28 40 -33 16 -45 30 -56 62 -13 37 -12 44 5 80
39 79 123 105 211 64 47 -21 66 -11 38 20 -40 44 -138 54 -202 22 l-41 -21
-11 44 c-30 121 19 234 112 252 17 3 33 16 42 34 36 69 179 118 216 73z m181
6 c44 -12 96 -54 108 -85 5 -14 20 -25 41 -29 43 -8 106 -75 115 -122 9 -50
-1 -136 -22 -175 -31 -61 -63 -81 -149 -92 -34 -4 -47 -17 -35 -32 11 -13 47
-13 94 0 34 10 86 39 86 48 0 5 7 4 15 -3 22 -18 19 -82 -5 -112 -10 -14 -33
-31 -50 -38 -22 -9 -29 -17 -25 -29 31 -76 8 -120 -69 -128 -40 -5 -48 -2 -76
25 -16 17 -31 40 -31 51 -3 47 -16 66 -34 51 -27 -23 2 -103 52 -147 32 -27
25 -49 -22 -68 -43 -19 -76 -19 -100 -1 -18 13 -18 35 -18 433 0 302 3 425 12
441 13 25 51 29 113 12z"/>
<path d="M350 771 c-12 -29 -51 -51 -91 -51 -22 0 -26 -28 -5 -36 23 -9 91 14
114 39 27 29 33 70 11 75 -10 2 -21 -8 -29 -27z"/>
<path d="M200 395 c-13 -15 -3 -24 45 -40 33 -11 61 -53 70 -105 7 -41 10 -44
30 -37 15 7 13 54 -5 101 -21 54 -116 110 -140 81z"/>
<path d="M638 754 c-7 -7 5 -52 22 -83 14 -27 99 -68 137 -67 46 2 42 33 -5
41 -58 9 -98 38 -112 79 -11 33 -28 45 -42 30z"/>
</g>
</svg>
